<svg xmlns="http://www.w3.org/2000/svg" width="775.718" height="524.364" viewBox="0 0 775.718 524.364"><defs><style>.a,.g{fill:#4a4343;}.a,.d,.f,.i,.j,.n{stroke:#6d6d6d;}.b{fill:#c0dbf6;}.c{fill:#c29b77;}.d,.p{fill:none;}.e{fill:#bfbfbf;}.f{fill:#b78a63;}.h{fill:#7e7e7e;}.i{fill:#111;}.j{fill:#303030;}.k{fill:#6d6d6d;}.l{fill:#ab7f57;}.m{fill:#7a9dc1;}.n{fill:#4b3228;}.o{stroke:none;}</style></defs><g transform="translate(-53.5 -122.117)"><g class="a" transform="translate(307.553 603.923)"><ellipse class="o" cx="10.861" cy="9.46" rx="10.861" ry="9.46"/><ellipse class="p" cx="10.861" cy="9.46" rx="10.361" ry="8.96"/></g><path class="b" d="M54.768,7.2C65.184,10.378,73.22,29.222,77.717,40.989s4.2,17.647,2.652,54.27S72.518,209.7,72.518,209.7c0,14.136.762,25.745-12.783,25.745H26.8c-13.545,0-13.676-27.721-13.676-27.721L7.015,155.2l-5.29-50.94L.015,77.293s-.344-5.312,2.206-17.549,3.393-28.89,12.385-43.68S25.451,10.342,38.313,3.508,44.351,4.017,54.768,7.2Z" transform="translate(118.313 302.971) rotate(-45)"/><g class="a" transform="translate(524.076 603.923)"><circle class="o" cx="9.46" cy="9.46" r="9.46"/><circle class="p" cx="9.46" cy="9.46" r="8.96"/></g><path class="c" d="M171.416,258.25c1.969,12.143,2.251,14.3,2.251,14.3l-19.13,2.7L136.25,262.567Z" transform="translate(-4 -1.25)"/><g class="a" transform="translate(413.362 615.835)"><ellipse class="o" cx="8.058" cy="11.562" rx="8.058" ry="11.562"/><ellipse class="p" cx="8.058" cy="11.562" rx="7.558" ry="11.062"/></g><path class="d" d="M381.005,858.51Z" transform="translate(-60.135 -247.923)"/><path class="e" d="M342.738,833.965l30.54-11.222L445.394,794.5l14.416,1.717-93.657,37.748s-7.611,3.98-13.464,3.98A15.6,15.6,0,0,1,342.738,833.965Z" transform="translate(-31.681 -228.766)"/><path class="d" d="M0,0Z" transform="matrix(-0.766, -0.643, 0.643, -0.766, 521.386, 599.752)"/><path class="e" d="M14.6,41.35l19.342-7.441L121.137,0l-2.223,8.992L0,55.556a15.538,15.538,0,0,1,4.462-7.468A80.371,80.371,0,0,1,14.6,41.35Z" transform="matrix(-0.766, -0.643, 0.643, -0.766, 506.934, 646.481)"/><rect class="e" width="14.715" height="57.459" rx="7.358" transform="translate(414.063 565.383)"/><rect class="e" width="17.518" height="99.502" transform="translate(413.362 469.385)"/><path class="c" d="M45.2,0c28.057,0,38.54,28.031,38.54,61.313s5.985,51.853-22.073,51.853c-14.281,0-22.073-1.4-43.8-6.657C2.1,101.955,1.51,91.871,1.51,75.53,1.51,42.248,17.139,0,45.2,0Z" transform="translate(82.248 169.041) rotate(-20)"/><path class="e" d="M510.677,774.822,504,753.333h33.635l-7.914,21.489Z" transform="translate(-98.813 -205.935)"/><path class="f" d="M136.814,176.624C25.131,109.65,0,18.755,0,18.755S9.816-6.05,19.471,1.393c7.308,5.634,5.249,19.654,5.249,19.654L35.9,46.764A154.567,154.567,0,0,0,47.434,66.509c7.044,10.182,2.519,6.771,16.638,20.984,12.55,12.633,17.211,16.185,47.392,42.9s74.674,61.085,74.674,61.085-10.808,7.05-33.625-5.875S136.814,176.624,136.814,176.624Z" transform="matrix(0.996, -0.087, 0.087, 0.996, 109.591, 282.484)"/><path class="f" d="M8.61,34.636s-19.372-26.342,0-32.847S43.479,8.616,86.1,8.616s69.739-10.763,92.985-4.258,0,30.278,0,30.278Z" transform="matrix(0.966, -0.259, 0.259, 0.966, 320.818, 474.97)"/><path class="g" d="M488,651.208l10.861,29.781,31.182-4.438,4.905-33.051Z" transform="matrix(0.996, -0.087, 0.087, 0.996, -148.388, -116.264)"/><path class="h" d="M9.382-.467s115.395,7.809,165.2,13.43c27.888,3.148,49.915,3.615,55.373,9.49,4.989,4.855-5.092,12.363-9.329,25.792-1.731,5.486,8.5,13.4,8.5,13.4s-1.812,1.715-29.919,6.976c-36.175,6.77-74.406,6.705-123.279,6.705S7.5,64.992,7.5,64.992s-18.338-7.585-18.338-9.907c0,0-16.473-14.414-12.4-27.134S1.346,3.824,1.346,3.824,6.369-.467,9.382-.467Z" transform="translate(315.537 414.886) rotate(-20)"/><path class="i" d="M0,70.554C12.146,11.212,28.029,0,28.029,0h8.409l4.671,105.575-35.5,4.671Z" transform="translate(792.917 245.865) rotate(30)"/><path class="h" d="M.841,24.213c-.2-8.373-3.474-16.4,4.406-19.544,7.645-3.049,26.7-1.126,52.524-1.384C108.9,2.776,227.924,0,227.924,0V47.649s-81.876,5.723-131,6.541-65.482-3.267-65.482-3.267S1.237,41.129.841,24.213Z" transform="translate(526.518 354.949) rotate(-10)"/><path class="j" d="M0,70.554C12.146,11.212,28.029,0,28.029,0h8.409l4.671,105.575-35.5,4.671Z" transform="matrix(0.921, 0.391, -0.391, 0.921, 763.768, 242.813)"/><path class="k" d="M428.66,499.269l201.133-62.6L825.691,432,815.23,473.109l-100.683,1.985-44.933-8.525s-23.468-.463-30.312,0c-64.653,4.375-138.558,19.55-179.494,27.8C439.668,498.421,428.66,499.269,428.66,499.269Z" transform="matrix(0.996, -0.087, 0.087, 0.996, -125.18, -54.755)"/><rect class="h" width="3" height="13" transform="matrix(0.574, -0.819, 0.819, 0.574, 305.315, 449)"/><rect class="h" width="3" height="13" transform="translate(315.975 423.112) rotate(-65)"/><path class="l" d="M115,243s6.916,7.567,22.25,11.25a136.156,136.156,0,0,0,29.75,3.5L151.667,274l-35-14L106.5,235Z"/><path class="b" d="M57,261.833l26.333-57.167,18,19.333L90,267Z" transform="translate(-3)"/><path class="b" d="M158.667,317.333,58.667,259l27.667-17,90.333,36Z" transform="translate(-5 3)"/><path class="m" d="M158.25,320.75,62.5,257.5,205,325.75Z" transform="translate(-9 4)"/><path class="m" d="M101.333,224.5,93.25,256,96,219Z" transform="translate(-3 -1)"/><path class="n" d="M179.688,69,208,80l-5,34.8s-25.392-8.319-36.622,0S151,122.946,151,140s7.059,48,7.059,48-26.62-19.127-38.267-39.924,0-41.076,0-41.076S134.354,92.34,146,89.844s12.891-1.664,20.378,0,9.983,4.575,13.31,0S179.688,69,179.688,69Z" transform="translate(-42.751 53.916)"/></g></svg>