<svg xmlns="http://www.w3.org/2000/svg" width="1065.016" height="1600.5" viewBox="0 0 1065.016 1600.5"><defs><style>.a{fill:#2c2c2c;}.b{fill:#fff;stroke:#707070;}.c,.d,.f{fill:none;}.c,.d{stroke:#2c2c2c;}.c{stroke-width:2px;}.e{stroke:none;}</style></defs><g transform="translate(-232 -78.5)"><rect class="a" width="373" height="29" transform="translate(390 531.528)"/><rect class="a" width="373" height="29" transform="translate(389 663.298)"/><rect class="a" width="373" height="29" transform="translate(389 597.413)"/><rect class="a" width="399" height="29" transform="translate(389 419.286) rotate(90)"/><rect class="a" width="386" height="29" transform="translate(777 355.286) rotate(90)"/><rect class="a" width="414" height="29" transform="translate(576 452.286) rotate(90)"/><rect class="a" width="950" height="417" transform="translate(777 729) rotate(90)"/><rect class="a" width="76" height="91" transform="translate(232 217)"/><rect class="a" width="76" height="91" transform="translate(444 216)"/><rect class="a" width="76" height="46" transform="translate(493 216)"/><rect class="a" width="7" height="434" transform="translate(444 307)"/><rect class="a" width="7" height="434" transform="translate(513 307)"/><rect class="a" width="6" height="222" transform="translate(518.5 290.5) rotate(90)"/><rect class="a" width="6" height="224" transform="translate(520.5 233.5) rotate(90)"/><rect class="a" width="7" height="728" transform="translate(1296.5 216.5) rotate(90)"/><path class="a" d="M0,0H7V585.75H0Z" transform="translate(1154.25 254.5) rotate(90)"/><rect class="a" width="7" height="149" transform="matrix(0.259, 0.966, -0.966, 0.259, 1295.204, 216.06)"/><g class="b" transform="translate(462 223)"><rect class="e" width="51" height="24"/><rect class="f" x="0.5" y="0.5" width="50" height="23"/></g><rect class="a" width="6" height="138" transform="translate(497.5 78.5)"/><line class="c" y1="147" x2="192" transform="translate(308.5 86.5)"/><line class="c" y1="149" x2="126" transform="translate(374.5 86.5)"/><line class="c" x1="354" y1="130" transform="translate(500.5 86.5)"/><rect class="a" width="3" height="86" transform="matrix(0.629, 0.777, -0.777, 0.629, 373.64, 236.978)"/><rect class="a" width="3" height="87" transform="matrix(-0.629, 0.777, -0.777, -0.629, 444.121, 291.099)"/><rect class="a" width="3" height="86" transform="matrix(0.629, 0.777, -0.777, 0.629, 373.64, 236.978)"/><rect class="a" width="3" height="67" transform="matrix(0.629, 0.777, -0.777, 0.629, 614.874, 216.935)"/><rect class="a" width="3" height="67" transform="matrix(-0.629, 0.777, -0.777, -0.629, 659.762, 259.099)"/><rect class="a" width="3" height="67" transform="matrix(0.629, 0.777, -0.777, 0.629, 702.874, 216.935)"/><rect class="a" width="3" height="67" transform="matrix(-0.629, 0.777, -0.777, -0.629, 747.762, 258.099)"/><rect class="a" width="3" height="67" transform="matrix(0.629, 0.777, -0.777, 0.629, 792.874, 216.935)"/><rect class="a" width="3" height="67" transform="matrix(-0.629, 0.777, -0.777, -0.629, 837.762, 259.099)"/><rect class="a" width="3" height="67" transform="matrix(0.629, 0.777, -0.777, 0.629, 881.874, 216.935)"/><rect class="a" width="3" height="67" transform="matrix(-0.629, 0.777, -0.777, -0.629, 926.762, 259.099)"/><rect class="a" width="3" height="67" transform="matrix(0.629, 0.777, -0.777, 0.629, 970.874, 216.935)"/><rect class="a" width="3" height="83" transform="matrix(0.629, 0.777, -0.777, 0.629, 513.423, 305.012)"/><rect class="a" width="3" height="83" transform="matrix(-0.629, 0.777, -0.777, -0.629, 516.197, 358.168)"/><rect class="a" width="3" height="83" transform="matrix(0.629, 0.777, -0.777, 0.629, 513.423, 360.012)"/><rect class="a" width="3" height="84" transform="matrix(-0.629, 0.777, -0.777, -0.629, 516.197, 413.168)"/><rect class="a" width="3" height="83" transform="matrix(0.629, 0.777, -0.777, 0.629, 513.423, 415.012)"/><rect class="a" width="3" height="84" transform="matrix(-0.629, 0.777, -0.777, -0.629, 516.197, 468.168)"/><rect class="a" width="3" height="83" transform="matrix(0.629, 0.777, -0.777, 0.629, 513.423, 470.012)"/><rect class="a" width="3" height="84" transform="matrix(-0.629, 0.777, -0.777, -0.629, 516.197, 523.168)"/><rect class="a" width="3" height="83" transform="matrix(0.629, 0.777, -0.777, 0.629, 513.423, 525.012)"/><rect class="a" width="3" height="84" transform="matrix(-0.629, 0.777, -0.777, -0.629, 516.197, 578.168)"/><rect class="a" width="3" height="83" transform="matrix(0.629, 0.777, -0.777, 0.629, 513.423, 525.012)"/><rect class="a" width="3" height="84" transform="matrix(-0.629, 0.777, -0.777, -0.629, 516.197, 578.168)"/><rect class="a" width="3" height="83" transform="matrix(0.629, 0.777, -0.777, 0.629, 513.423, 580.012)"/><rect class="a" width="3" height="84" transform="matrix(-0.629, 0.777, -0.777, -0.629, 516.197, 633.168)"/><rect class="a" width="3" height="83" transform="matrix(0.629, 0.777, -0.777, 0.629, 513.423, 580.012)"/><rect class="a" width="3" height="84" transform="matrix(-0.629, 0.777, -0.777, -0.629, 516.197, 633.168)"/><rect class="a" width="3" height="83" transform="matrix(0.629, 0.777, -0.777, 0.629, 513.423, 635.012)"/><rect class="a" width="3" height="84" transform="matrix(-0.629, 0.777, -0.777, -0.629, 516.197, 688.168)"/><rect class="a" width="3" height="83" transform="matrix(0.629, 0.777, -0.777, 0.629, 513.423, 635.012)"/><rect class="a" width="3" height="84" transform="matrix(-0.629, 0.777, -0.777, -0.629, 516.197, 688.168)"/><rect class="a" width="3" height="83" transform="matrix(0.629, 0.777, -0.777, 0.629, 513.423, 636.012)"/><rect class="a" width="3" height="84" transform="matrix(-0.629, 0.777, -0.777, -0.629, 516.197, 689.168)"/><rect class="a" width="3" height="83" transform="matrix(0.629, 0.777, -0.777, 0.629, 513.423, 636.012)"/><path class="a" d="M0,0H3V84H0Z" transform="matrix(-0.629, 0.777, -0.777, -0.629, 516.197, 689.168)"/><rect class="a" width="3" height="83" transform="matrix(0.629, 0.777, -0.777, 0.629, 513.423, 690.012)"/><rect class="a" width="3" height="84" transform="matrix(-0.629, 0.777, -0.777, -0.629, 516.197, 743.168)"/><rect class="a" width="3" height="83" transform="matrix(0.629, 0.777, -0.777, 0.629, 513.423, 690.012)"/><rect class="a" width="3" height="84" transform="matrix(-0.629, 0.777, -0.777, -0.629, 516.197, 743.168)"/><rect class="a" width="3" height="83" transform="matrix(0.629, 0.777, -0.777, 0.629, 513.423, 691.012)"/><rect class="a" width="3" height="84" transform="matrix(-0.629, 0.777, -0.777, -0.629, 516.197, 744.168)"/><rect class="a" width="3" height="83" transform="matrix(0.629, 0.777, -0.777, 0.629, 513.423, 691.012)"/><path class="a" d="M0,0H3V84H0Z" transform="matrix(-0.629, 0.777, -0.777, -0.629, 516.197, 744.168)"/><g transform="translate(166 1)"><path class="a" d="M12,0,24,23H0Z" transform="translate(862 331) rotate(180)"/><rect class="a" width="50" height="6" transform="translate(826 264)"/><line class="d" y1="40" x2="34" transform="translate(840.5 268.5)"/><line class="d" x1="32" y1="42" transform="translate(827.5 268.5)"/><line class="d" x1="53" y2="124" transform="translate(797.5 328.5)"/><line class="d" x2="57" y2="124" transform="translate(849.5 328.5)"/><rect class="a" width="121" height="11" transform="translate(793 451)"/></g><rect class="a" width="3" height="67" transform="matrix(-0.629, 0.777, -0.777, -0.629, 1016.762, 259.099)"/><rect class="a" width="3" height="67" transform="matrix(0.629, 0.777, -0.777, 0.629, 1060.874, 216.935)"/><rect class="a" width="3" height="67" transform="matrix(-0.629, 0.777, -0.777, -0.629, 1106.762, 259.099)"/><rect class="a" width="3" height="67" transform="matrix(0.629, 0.777, -0.777, 0.629, 1150.874, 216.935)"/><rect class="a" width="3" height="53" transform="matrix(-0.629, 0.777, -0.777, -0.629, 1185.882, 250.289)"/></g></svg>